<mxfile host="65bd71144e">
    <diagram id="3e1tAR90L5M3VARvCtWs" name="Page-1">
        <mxGraphModel dx="1800" dy="1115" grid="1" gridSize="10" guides="1" tooltips="1" connect="1" arrows="1" fold="1" page="1" pageScale="1" pageWidth="827" pageHeight="1169" math="0" shadow="0">
            <root>
                <mxCell id="0"/>
                <mxCell id="1" parent="0"/>
                <mxCell id="10" value="" style="edgeStyle=none;html=1;strokeColor=#FFFFFF;" parent="1" source="3" target="9" edge="1">
                    <mxGeometry relative="1" as="geometry"/>
                </mxCell>
                <mxCell id="3" value="start" style="ellipse;whiteSpace=wrap;html=1;fillColor=#647687;fontColor=#ffffff;strokeColor=#314354;" parent="1" vertex="1">
                    <mxGeometry x="354" width="120" height="80" as="geometry"/>
                </mxCell>
                <mxCell id="12" value="" style="edgeStyle=none;html=1;strokeColor=#FFFFFF;" edge="1" parent="1" source="9" target="11">
                    <mxGeometry relative="1" as="geometry"/>
                </mxCell>
                <mxCell id="9" value="int inputNumber;" style="shape=parallelogram;perimeter=parallelogramPerimeter;whiteSpace=wrap;html=1;fixedSize=1;fillColor=#647687;fontColor=#ffffff;strokeColor=#314354;" parent="1" vertex="1">
                    <mxGeometry x="301" y="130" width="226" height="70" as="geometry"/>
                </mxCell>
                <mxCell id="14" value="Yes" style="edgeStyle=none;html=1;strokeColor=#FFFFFF;" edge="1" parent="1" source="11" target="13">
                    <mxGeometry relative="1" as="geometry"/>
                </mxCell>
                <mxCell id="16" value="No" style="edgeStyle=none;html=1;strokeColor=#FFFFFF;" edge="1" parent="1" source="11" target="15">
                    <mxGeometry relative="1" as="geometry"/>
                </mxCell>
                <mxCell id="11" value="inputNumber&amp;gt;20" style="rhombus;whiteSpace=wrap;html=1;fillColor=#647687;fontColor=#ffffff;strokeColor=#314354;" vertex="1" parent="1">
                    <mxGeometry x="315" y="240" width="196" height="200" as="geometry"/>
                </mxCell>
                <mxCell id="20" value="" style="edgeStyle=none;html=1;strokeColor=#FFFFFF;" edge="1" parent="1" source="13" target="19">
                    <mxGeometry relative="1" as="geometry"/>
                </mxCell>
                <mxCell id="13" value="&lt;div style=&quot;color: rgb(212 , 212 , 212) ; background-color: rgb(30 , 30 , 30) ; font-family: &amp;#34;consolas&amp;#34; , &amp;#34;courier new&amp;#34; , monospace ; font-size: 14px ; line-height: 19px&quot;&gt;&lt;span style=&quot;color: #4ec9b0&quot;&gt;AdditionAlgorithm&lt;/span&gt; *&lt;span style=&quot;color: #9cdcfe&quot;&gt;al&lt;/span&gt; = &lt;span style=&quot;color: #c586c0&quot;&gt;new&lt;/span&gt; &lt;span style=&quot;color: #4ec9b0&quot;&gt;AdditionAlgorithm&lt;/span&gt;(&amp;amp;&lt;span style=&quot;color: #9cdcfe&quot;&gt;inputNumber&lt;/span&gt;);&lt;/div&gt;" style="whiteSpace=wrap;html=1;fillColor=#ffcccc;strokeColor=#36393d;" vertex="1" parent="1">
                    <mxGeometry x="278.75" y="500" width="270.5" height="110" as="geometry"/>
                </mxCell>
                <mxCell id="22" value="" style="edgeStyle=none;html=1;strokeWidth=2;strokeColor=#FFFFFF;" edge="1" parent="1" source="15" target="19">
                    <mxGeometry x="-0.3795" y="-3" relative="1" as="geometry">
                        <mxPoint x="754" y="740" as="targetPoint"/>
                        <Array as="points">
                            <mxPoint x="754" y="740"/>
                        </Array>
                        <mxPoint as="offset"/>
                    </mxGeometry>
                </mxCell>
                <mxCell id="15" value="&lt;div style=&quot;color: rgb(212 , 212 , 212) ; background-color: rgb(30 , 30 , 30) ; font-family: &amp;#34;consolas&amp;#34; , &amp;#34;courier new&amp;#34; , monospace ; font-size: 14px ; line-height: 19px&quot;&gt;&lt;span style=&quot;color: #4ec9b0&quot;&gt;MultiplyAlgorithm&lt;/span&gt; *&lt;span style=&quot;color: #9cdcfe&quot;&gt;al&lt;/span&gt; = &lt;span style=&quot;color: #c586c0&quot;&gt;new&lt;/span&gt; &lt;span style=&quot;color: #4ec9b0&quot;&gt;MultiplyAlgorithm&lt;/span&gt;(&amp;amp;&lt;span style=&quot;color: #9cdcfe&quot;&gt;inputNumber&lt;/span&gt;);&lt;/div&gt;" style="whiteSpace=wrap;html=1;fillColor=#ffff88;strokeColor=#36393d;" vertex="1" parent="1">
                    <mxGeometry x="629" y="290" width="251" height="100" as="geometry"/>
                </mxCell>
                <mxCell id="24" value="d" style="edgeStyle=none;html=1;strokeWidth=2;strokeColor=#FFFFFF;" edge="1" parent="1" source="18" target="23">
                    <mxGeometry relative="1" as="geometry"/>
                </mxCell>
                <mxCell id="18" value="&lt;div style=&quot;color: rgb(212 , 212 , 212) ; background-color: rgb(30 , 30 , 30) ; font-family: &amp;#34;consolas&amp;#34; , &amp;#34;courier new&amp;#34; , monospace ; font-size: 14px ; line-height: 19px&quot;&gt;&lt;span style=&quot;color: #dcdcaa&quot;&gt;MultiplyAlgorithm&lt;/span&gt;&lt;/div&gt;" style="ellipse;whiteSpace=wrap;html=1;fillColor=#ffff88;strokeColor=#36393d;" vertex="1" parent="1">
                    <mxGeometry x="925.25" width="179" height="80" as="geometry"/>
                </mxCell>
                <mxCell id="19" value="print results" style="shape=document;whiteSpace=wrap;html=1;boundedLbl=1;fillColor=#647687;fontColor=#ffffff;strokeColor=#314354;" vertex="1" parent="1">
                    <mxGeometry x="290" y="670" width="240" height="130" as="geometry"/>
                </mxCell>
                <mxCell id="26" value="" style="edgeStyle=none;html=1;strokeWidth=2;strokeColor=#FFFFFF;" edge="1" parent="1" source="23" target="25">
                    <mxGeometry relative="1" as="geometry"/>
                </mxCell>
                <mxCell id="23" value="wanted row number&lt;br&gt;&lt;div style=&quot;color: rgb(212 , 212 , 212) ; background-color: rgb(30 , 30 , 30) ; font-family: &amp;#34;consolas&amp;#34; , &amp;#34;courier new&amp;#34; , monospace ; font-size: 14px ; line-height: 19px&quot;&gt;&lt;span style=&quot;color: #569cd6&quot;&gt;int&lt;/span&gt; *&lt;span style=&quot;color: #9cdcfe&quot;&gt;row&lt;/span&gt;;&lt;/div&gt;" style="shape=parallelogram;perimeter=parallelogramPerimeter;whiteSpace=wrap;html=1;fixedSize=1;fillColor=#ffff88;strokeColor=#36393d;" vertex="1" parent="1">
                    <mxGeometry x="910" y="140" width="209.5" height="90" as="geometry"/>
                </mxCell>
                <mxCell id="60" value="" style="edgeStyle=none;html=1;fontSize=12;fontColor=#121212;strokeColor=#FFFFFF;strokeWidth=2;" edge="1" parent="1" source="25" target="59">
                    <mxGeometry relative="1" as="geometry"/>
                </mxCell>
                <mxCell id="25" value="Combination prosses&lt;br&gt;&lt;div style=&quot;color: rgb(212 , 212 , 212) ; background-color: rgb(30 , 30 , 30) ; font-family: &amp;#34;consolas&amp;#34; , &amp;#34;courier new&amp;#34; , monospace ; font-size: 14px ; line-height: 19px&quot;&gt;&lt;span style=&quot;color: #569cd6&quot;&gt;void&lt;/span&gt; &lt;span style=&quot;color: #dcdcaa&quot;&gt;calculate&lt;/span&gt;(&lt;span style=&quot;color: #569cd6&quot;&gt;int&lt;/span&gt; &lt;span style=&quot;color: #569cd6&quot;&gt;*&lt;/span&gt;&lt;span style=&quot;color: #9cdcfe&quot;&gt;n&lt;/span&gt;);&lt;/div&gt;" style="whiteSpace=wrap;html=1;fillColor=#ffff88;strokeColor=#36393d;" vertex="1" parent="1">
                    <mxGeometry x="920" y="270" width="189.5" height="85" as="geometry"/>
                </mxCell>
                <mxCell id="35" value="" style="edgeStyle=none;html=1;fontSize=9;strokeWidth=2;strokeColor=#FFFFFF;" edge="1" parent="1" source="33" target="34">
                    <mxGeometry relative="1" as="geometry"/>
                </mxCell>
                <mxCell id="33" value="&lt;div style=&quot;color: rgb(212 , 212 , 212) ; background-color: rgb(30 , 30 , 30) ; font-family: &amp;#34;consolas&amp;#34; , &amp;#34;courier new&amp;#34; , monospace ; font-size: 14px ; line-height: 19px&quot;&gt;&lt;span style=&quot;color: rgb(78 , 201 , 176) ; font-family: &amp;#34;consolas&amp;#34; , &amp;#34;courier new&amp;#34; , monospace&quot;&gt;AdditionAlgorithm&lt;/span&gt;&lt;br&gt;&lt;/div&gt;" style="ellipse;whiteSpace=wrap;html=1;fillColor=#ffcccc;strokeColor=#36393d;" vertex="1" parent="1">
                    <mxGeometry x="1249" width="179" height="80" as="geometry"/>
                </mxCell>
                <mxCell id="37" value="" style="edgeStyle=none;html=1;fontSize=11;strokeWidth=2;strokeColor=#FFFFFF;" edge="1" parent="1" source="34" target="36">
                    <mxGeometry relative="1" as="geometry"/>
                </mxCell>
                <mxCell id="34" value="&lt;div style=&quot;color: rgb(212 , 212 , 212) ; background-color: rgb(30 , 30 , 30) ; font-family: &amp;#34;consolas&amp;#34; , &amp;#34;courier new&amp;#34; , monospace ; line-height: 19px ; font-size: 11px&quot;&gt;&lt;div style=&quot;font-family: &amp;#34;consolas&amp;#34; , &amp;#34;courier new&amp;#34; , monospace ; line-height: 19px&quot;&gt;&lt;div&gt;&lt;span style=&quot;color: #4ec9b0&quot;&gt;vector&lt;/span&gt;&amp;lt;&lt;span style=&quot;color: #569cd6&quot;&gt;unsigned&lt;/span&gt; &lt;span style=&quot;color: #569cd6&quot;&gt;long&lt;/span&gt; &lt;span style=&quot;color: #569cd6&quot;&gt;long&lt;/span&gt;&amp;gt; *&lt;span style=&quot;color: #9cdcfe&quot;&gt;vector1&lt;/span&gt;;&lt;/div&gt;&lt;div&gt;&amp;nbsp; &amp;nbsp; &lt;span style=&quot;color: #4ec9b0&quot;&gt;vector&lt;/span&gt;&amp;lt;&lt;span style=&quot;color: #569cd6&quot;&gt;unsigned&lt;/span&gt; &lt;span style=&quot;color: #569cd6&quot;&gt;long&lt;/span&gt; &lt;span style=&quot;color: #569cd6&quot;&gt;long&lt;/span&gt;&amp;gt; *&lt;span style=&quot;color: #9cdcfe&quot;&gt;vector2&lt;/span&gt;;&lt;/div&gt;&lt;div&gt;&amp;nbsp; &amp;nbsp; &lt;span style=&quot;color: #4ec9b0&quot;&gt;MultiplyAlgorithm&lt;/span&gt; *&lt;span style=&quot;color: #9cdcfe&quot;&gt;m&lt;/span&gt;;&lt;/div&gt;&lt;/div&gt;&lt;/div&gt;" style="shape=parallelogram;perimeter=parallelogramPerimeter;whiteSpace=wrap;html=1;fixedSize=1;align=center;fillColor=#ffcccc;strokeColor=#36393d;" vertex="1" parent="1">
                    <mxGeometry x="1170.75" y="130" width="335.5" height="130" as="geometry"/>
                </mxCell>
                <mxCell id="39" value="" style="edgeStyle=none;html=1;fontSize=12;strokeWidth=2;strokeColor=#FFFFFF;" edge="1" parent="1" source="36" target="38">
                    <mxGeometry relative="1" as="geometry"/>
                </mxCell>
                <mxCell id="36" value="&lt;div style=&quot;color: rgb(212 , 212 , 212) ; background-color: rgb(30 , 30 , 30) ; font-family: &amp;#34;consolas&amp;#34; , &amp;#34;courier new&amp;#34; , monospace ; line-height: 19px&quot;&gt;&lt;div&gt;&lt;span style=&quot;color: #9cdcfe&quot;&gt;vector1&lt;/span&gt; = &lt;span style=&quot;color: #c586c0&quot;&gt;new&lt;/span&gt; &lt;span style=&quot;color: #4ec9b0&quot;&gt;vector&lt;/span&gt;&amp;lt;&lt;span style=&quot;color: #569cd6&quot;&gt;unsigned&lt;/span&gt; &lt;span style=&quot;color: #569cd6&quot;&gt;long&lt;/span&gt; &lt;span style=&quot;color: #569cd6&quot;&gt;long&lt;/span&gt;&amp;gt;;&lt;/div&gt;&lt;div&gt;&amp;nbsp; &amp;nbsp; &amp;nbsp; &amp;nbsp; &lt;span style=&quot;color: #9cdcfe&quot;&gt;vector2&lt;/span&gt; = &lt;span style=&quot;color: #c586c0&quot;&gt;new&lt;/span&gt; &lt;span style=&quot;color: #4ec9b0&quot;&gt;vector&lt;/span&gt;&amp;lt;&lt;span style=&quot;color: #569cd6&quot;&gt;unsigned&lt;/span&gt; &lt;span style=&quot;color: #569cd6&quot;&gt;long&lt;/span&gt; &lt;span style=&quot;color: #569cd6&quot;&gt;long&lt;/span&gt;&amp;gt;;&lt;/div&gt;&lt;div&gt;&lt;span style=&quot;color: #6a9955&quot;&gt;&amp;nbsp; &amp;nbsp; &amp;nbsp; &amp;nbsp;&amp;nbsp;&lt;/span&gt;&lt;/div&gt;&lt;div&gt;&amp;nbsp; &amp;nbsp; &amp;nbsp; &amp;nbsp; &lt;span style=&quot;color: #9cdcfe&quot;&gt;m&lt;/span&gt; = &lt;span style=&quot;color: #c586c0&quot;&gt;new&lt;/span&gt; &lt;span style=&quot;color: #4ec9b0&quot;&gt;MultiplyAlgorithm&lt;/span&gt;();&lt;/div&gt;&lt;div&gt;&amp;nbsp; &amp;nbsp; &amp;nbsp; &amp;nbsp; &lt;span style=&quot;color: #9cdcfe&quot;&gt;vector1&lt;/span&gt; = &amp;amp;&lt;span style=&quot;color: #9cdcfe&quot;&gt;m&lt;/span&gt;-&amp;gt;&lt;span style=&quot;color: #9cdcfe&quot;&gt;liste&lt;/span&gt;;&lt;/div&gt;&lt;/div&gt;" style="whiteSpace=wrap;html=1;fillColor=#ffcccc;strokeColor=#36393d;" vertex="1" parent="1">
                    <mxGeometry x="1153.5" y="290" width="370" height="170" as="geometry"/>
                </mxCell>
                <mxCell id="41" value="" style="edgeStyle=none;html=1;fontSize=12;strokeWidth=2;strokeColor=#FFFFFF;" edge="1" parent="1" source="38" target="40">
                    <mxGeometry relative="1" as="geometry"/>
                </mxCell>
                <mxCell id="43" value="" style="edgeStyle=none;html=1;fontSize=12;strokeWidth=2;strokeColor=#FFFFFF;" edge="1" parent="1" source="38" target="42">
                    <mxGeometry relative="1" as="geometry"/>
                </mxCell>
                <mxCell id="38" value="&lt;div style=&quot;color: rgb(212 , 212 , 212) ; background-color: rgb(30 , 30 , 30) ; font-family: &amp;#34;consolas&amp;#34; , &amp;#34;courier new&amp;#34; , monospace ; font-size: 14px ; line-height: 19px&quot;&gt;&lt;span style=&quot;color: #c586c0&quot;&gt;for&lt;/span&gt; (&lt;span style=&quot;color: #569cd6&quot;&gt;int&lt;/span&gt; &lt;span style=&quot;color: #9cdcfe&quot;&gt;i&lt;/span&gt; = &lt;span style=&quot;color: #b5cea8&quot;&gt;0&lt;/span&gt;; &lt;span style=&quot;color: #9cdcfe&quot;&gt;i&lt;/span&gt; &amp;lt;= &lt;span style=&quot;color: #9cdcfe&quot;&gt;vector1&lt;/span&gt;-&amp;gt;&lt;span style=&quot;color: #dcdcaa&quot;&gt;size&lt;/span&gt;() - &lt;span style=&quot;color: #b5cea8&quot;&gt;2&lt;/span&gt;; &lt;span style=&quot;color: #9cdcfe&quot;&gt;i&lt;/span&gt;++)&lt;/div&gt;" style="shape=hexagon;perimeter=hexagonPerimeter2;whiteSpace=wrap;html=1;fixedSize=1;fillColor=#ffcccc;strokeColor=#36393d;" vertex="1" parent="1">
                    <mxGeometry x="1157.75" y="510" width="365.75" height="155" as="geometry"/>
                </mxCell>
                <mxCell id="40" value="&lt;div style=&quot;color: rgb(212 , 212 , 212) ; background-color: rgb(30 , 30 , 30) ; font-family: &amp;#34;consolas&amp;#34; , &amp;#34;courier new&amp;#34; , monospace ; font-size: 14px ; line-height: 19px&quot;&gt;&lt;div&gt;&lt;span style=&quot;color: #dcdcaa&quot;&gt;vectorCreate&lt;/span&gt;();&lt;/div&gt;&lt;div&gt;&lt;span style=&quot;color: #dcdcaa&quot;&gt;vectorSwap&lt;/span&gt;();&lt;/div&gt;&lt;/div&gt;" style="whiteSpace=wrap;html=1;align=center;fillColor=#ffcccc;strokeColor=#36393d;" vertex="1" parent="1">
                    <mxGeometry x="1594.25" y="516" width="270.01" height="137.5" as="geometry"/>
                </mxCell>
                <mxCell id="42" value="&#10;&#10;&lt;div style=&quot;color: rgb(212, 212, 212); background-color: rgb(30, 30, 30); font-family: consolas, &amp;quot;courier new&amp;quot;, monospace; font-weight: normal; font-size: 14px; line-height: 19px;&quot;&gt;&lt;div&gt;&lt;span style=&quot;color: #d4d4d4&quot;&gt;&amp;nbsp;&lt;/span&gt;&lt;span style=&quot;color: #dcdcaa&quot;&gt;writer&lt;/span&gt;&lt;span style=&quot;color: #d4d4d4&quot;&gt;();&lt;/span&gt;&lt;/div&gt;&lt;/div&gt;&#10;&#10;" style="whiteSpace=wrap;html=1;fillColor=#ffcccc;strokeColor=#36393d;" vertex="1" parent="1">
                    <mxGeometry x="1213.8100000000002" y="720" width="253.63" height="110" as="geometry"/>
                </mxCell>
                <mxCell id="59" value="&#10;&#10;&lt;div style=&quot;color: rgb(212, 212, 212); background-color: rgb(30, 30, 30); font-family: consolas, &amp;quot;courier new&amp;quot;, monospace; font-weight: normal; font-size: 14px; line-height: 19px;&quot;&gt;&lt;div&gt;&lt;span style=&quot;color: #d4d4d4&quot;&gt;&amp;nbsp;&lt;/span&gt;&lt;span style=&quot;color: #dcdcaa&quot;&gt;writer&lt;/span&gt;&lt;span style=&quot;color: #d4d4d4&quot;&gt;();&lt;/span&gt;&lt;/div&gt;&lt;/div&gt;&#10;&#10;" style="whiteSpace=wrap;html=1;fillColor=#ffff88;strokeColor=#36393d;" vertex="1" parent="1">
                    <mxGeometry x="920" y="380" width="190" height="80" as="geometry"/>
                </mxCell>
            </root>
        </mxGraphModel>
    </diagram>
</mxfile>